<svg width="3590" height="3590" viewBox="0 0 3590 3590" fill="none" xmlns="http://www.w3.org/2000/svg">
<mask id="mask0_409_3640" style="mask-type:alpha" maskUnits="userSpaceOnUse" x="0" y="0" width="3579" height="3579">
<circle cx="1789.11" cy="1789.11" r="1789.11" fill="#D9D9D9"/>
</mask>
<g mask="url(#mask0_409_3640)">
<path d="M2769.93 3266.2C2761.72 3272.06 2752.34 3277.93 2744.12 3283.79C2734.74 3289.66 2726.53 3295.53 2717.14 3300.22C2708.93 3304.91 2701.89 3309.6 2693.68 3314.3C2692.5 3315.47 2691.33 3315.47 2690.16 3316.64C2663.17 3333.07 2635.02 3348.32 2606.86 3362.4C2598.65 3367.09 2589.26 3371.78 2581.05 3375.3C2581.05 3375.3 2579.87 3376.48 2578.7 3376.48C2569.32 3381.17 2559.93 3385.86 2550.54 3390.56C2531.77 3399.94 2511.83 3408.15 2493.06 3416.37C2483.67 3421.06 2473.11 3424.58 2463.73 3428.1C2454.34 3431.62 2443.78 3436.31 2434.4 3439.83C2425.01 3443.35 2414.45 3448.04 2405.07 3451.56C2405.07 3451.56 2405.07 3451.56 2403.89 3451.56C2394.51 3455.08 2383.95 3458.6 2374.56 3462.12C2353.45 3469.16 2331.16 3476.2 2310.04 3483.24C2303 3485.59 2294.79 3487.93 2287.75 3490.28C2265.46 3497.32 2243.17 3503.18 2220.87 3507.88C2212.66 3510.22 2204.45 3511.4 2195.06 3513.74C2173.95 3518.43 2151.66 3523.13 2130.54 3527.82C2125.85 3528.99 2122.33 3528.99 2117.63 3530.17C2110.59 3531.34 2102.38 3532.51 2095.34 3533.69C2084.78 3534.86 2075.4 3537.21 2064.84 3538.38C2060.15 3539.55 2055.45 3539.55 2050.76 3540.73C2044.89 3541.9 2037.86 3543.07 2030.82 3543.07C2012.04 3545.42 1992.1 3547.76 1973.33 3550.11C1967.46 3551.28 1960.42 3551.28 1954.56 3552.46H1953.38C1945.17 3553.63 1936.96 3553.63 1928.75 3554.8C1920.53 3555.98 1912.32 3555.98 1904.11 3555.98C1899.42 3555.98 1893.55 3557.15 1888.86 3557.15C1879.47 3557.15 1871.26 3558.32 1863.05 3558.32C1851.32 3558.32 1840.76 3559.5 1829.03 3559.5C1817.29 3559.5 1806.73 3559.5 1795 3559.5C1786.79 3559.5 1778.58 3559.5 1770.36 3559.5C1275.27 3552.46 830.63 3342.45 512.692 3009.26C512.692 3009.26 512.692 3008.09 511.519 3008.09C476.322 2976.42 506.826 2807.47 648.783 2700.71C827.11 2565.79 1254.16 2481.32 1254.16 2481.32C1254.16 2481.32 1419.58 2454.34 2033.16 2582.22C2392.16 2657.3 2665.52 2766.41 2818.03 3062.06C2849.71 3123.07 2881.39 3216.92 2769.93 3266.2Z" fill="#F60000"/>
<path d="M2036.68 2569.31C2261.94 2615.07 2502.44 2664.34 2687.81 2813.34C2749.99 2863.79 2791.05 2937.7 2825.07 3009.27C2841.5 3044.46 2857.92 3080.83 2870.83 3119.55C2877.87 3145.36 2888.43 3174.69 2882.56 3205.19C2881.39 3213.4 2874.35 3223.96 2868.48 3229.83C2841.5 3256.81 2812.17 3273.24 2782.84 3294.35C2610.38 3414.02 2412.11 3498.49 2206.8 3543.07C1749.25 3642.79 1254.16 3565.36 851.747 3324.86C718.002 3243.91 594.816 3145.36 489.228 3029.21C477.496 3015.13 477.496 2991.67 477.496 2976.42C478.669 2941.22 488.055 2907.2 499.787 2875.52C527.943 2802.78 564.313 2730.04 626.492 2679.6C671.074 2649.09 719.175 2623.28 768.45 2602.16C923.313 2536.46 1086.39 2490.71 1254.16 2471.94C1268.23 2470.77 1270.58 2490.71 1256.5 2493.06C1095.77 2525.91 936.218 2575.18 787.221 2642.05C733.254 2669.04 675.767 2692.5 632.358 2734.74C591.296 2779.32 561.966 2834.46 538.502 2890.77C523.251 2924.79 512.692 2978.76 517.385 3005.75C591.296 3093.74 678.113 3171.17 771.97 3238.04C1285.83 3597.04 2066.01 3620.5 2612.72 3321.34C2662 3294.35 2710.1 3263.85 2755.85 3232.17C2778.15 3216.92 2801.61 3204.02 2819.21 3186.42C2820.38 3185.25 2819.21 3186.42 2819.21 3187.59C2819.21 3188.77 2818.03 3189.94 2818.03 3189.94C2819.21 3175.86 2814.52 3157.09 2808.65 3138.32C2787.53 3070.27 2753.51 2998.71 2717.14 2936.53C2659.65 2843.84 2562.28 2785.18 2463.73 2738.26C2395.68 2706.58 2324.12 2681.94 2251.38 2658.48C2178.64 2635.01 2104.73 2615.07 2030.82 2597.47C2012.04 2592.78 2017.91 2565.79 2036.68 2569.31Z" fill="#2E2E2E"/>
<path d="M1045.32 2470.77C1045.32 2470.77 1216.61 2402.72 1248.29 2400.37L1250.63 2427.36C1250.63 2427.36 1114.54 2486.02 1106.33 2495.4C1099.29 2503.61 1045.32 2470.77 1045.32 2470.77Z" fill="#7E5D6D"/>
<path d="M3159.43 3993.58H192.398C192.398 3993.58 209.996 3449.22 388.323 3060.89C523.241 2767.59 847.045 2574.01 1082.86 2489.54C1149.73 2466.07 1201.35 2440.26 1249.45 2427.36C1249.45 2433.22 1252.97 2476.63 1252.97 2481.32C1252.97 2481.32 1412.53 2403.89 1831.36 2427.36C2024.94 2437.92 2085.95 2422.66 2085.95 2422.66C2108.24 2417.97 2112.93 2564.62 2132.88 2557.58C2139.91 2555.24 2189.19 2535.29 2195.06 2532.95C2346.4 2572.83 2531.76 2685.46 2800.43 2910.72C3105.46 3166.48 3159.43 3993.58 3159.43 3993.58Z" fill="#CDCDCD" stroke="#2E2E2E" stroke-width="5.1257" stroke-miterlimit="10" stroke-linecap="round" stroke-linejoin="round"/>
<path d="M2588.08 2800.43C2663.89 2800.43 2725.34 2738.98 2725.34 2663.17C2725.34 2587.36 2663.89 2525.9 2588.08 2525.9C2512.27 2525.9 2450.81 2587.36 2450.81 2663.17C2450.81 2738.98 2512.27 2800.43 2588.08 2800.43Z" fill="#FFFF8D"/>
<path d="M773.134 3993.58L720.34 3558.32" stroke="#544D4D" stroke-width="3" stroke-miterlimit="10" stroke-linecap="round" stroke-linejoin="round"/>
<path d="M2822.72 3410.5C2822.72 3410.5 2787.53 3496.14 2798.09 3581.79C2808.64 3667.43 2839.15 3792.96 2795.74 3993.58" stroke="#544D4D" stroke-width="3" stroke-miterlimit="10" stroke-linecap="round" stroke-linejoin="round"/>
<path d="M1045.32 2470.77C1067.61 2463.73 1106.33 2470.77 1118.06 2490.71C1163.81 2565.79 1793.82 2678.42 1839.58 3113.68C1875.95 3453.91 1807.9 4173.08 1807.9 4173.08L161.9 4119.11C161.9 4119.11 195.923 3540.73 295.645 3152.4C394.194 2775.8 649.952 2606.86 1045.32 2470.77Z" fill="#2E2E2E" stroke="#2E2E2E" stroke-width="5.1257" stroke-miterlimit="10" stroke-linecap="round" stroke-linejoin="round"/>
<path d="M2107.07 3113.68C2107.07 3113.68 2179.81 3490.28 2166.9 4134.37H3263.85C3263.85 4134.37 3260.33 3411.67 3084.35 3018.65C2908.37 2626.8 2292.44 2511.83 2292.44 2511.83C2292.44 2511.83 2137.57 3101.95 2107.07 3113.68Z" fill="#2E2E2E" stroke="#2E2E2E" stroke-width="5.1257" stroke-miterlimit="10" stroke-linecap="round" stroke-linejoin="round"/>
<path d="M2225.56 2542.33L2197.41 2534.12C2197.41 2534.12 2238.47 2514.17 2256.07 2502.44L2266.63 2496.58C2266.63 2496.58 2322.94 2522.39 2342.88 2531.77C2362.83 2541.16 2273.66 2584.57 2273.66 2584.57C2273.66 2584.57 2229.08 2543.5 2225.56 2542.33Z" fill="#7E5D6D"/>
<path d="M1840.76 3113.68C1840.76 3113.68 1651.87 2957.64 1228.34 2873.17C858.785 2799.26 476.321 2834.46 509.171 2735.91C612.413 2427.36 1233.04 2245.51 1233.04 2247.86C1233.04 2249.03 1589.69 2137.58 1763.32 2340.54C1792.65 2375.74 1839.58 2947.09 1840.76 3113.68Z" fill="#CDCDCD"/>
<path d="M1853.66 3140.66C1844.28 3145.36 1827.85 3143.01 1819.64 3134.8C1818.47 3133.62 1813.77 3130.11 1811.43 3128.93C1631.93 2999.88 1414.88 2933.01 1200.19 2888.43C1051.19 2859.1 898.674 2846.19 747.331 2832.11C689.844 2822.73 459.896 2821.55 498.612 2727.7C592.468 2476.63 986.664 2303 1228.34 2229.09C1331.59 2202.1 1440.69 2193.89 1546.28 2213.83C1630.75 2229.09 1714.05 2265.45 1771.54 2329.98C1780.92 2340.54 1784.44 2356.96 1786.79 2368.7C1806.73 2462.55 1814.95 2558.76 1827.85 2653.78C1843.1 2786.36 1856.01 2920.1 1867.74 3053.85C1867.74 3062.06 1870.09 3089.04 1870.09 3097.26V3100.77V3103.12C1871.26 3117.2 1863.05 3133.62 1853.66 3140.66ZM1827.85 3086.7C1824.33 3086.7 1819.64 3089.04 1816.12 3092.56C1811.43 3096.08 1810.25 3104.29 1810.25 3105.47C1810.25 3103.12 1810.25 3089.04 1810.25 3086.7C1810.25 2944.74 1802.04 2801.61 1791.48 2659.65C1785.62 2583.39 1778.58 2508.31 1768.02 2433.22C1764.5 2407.41 1760.98 2376.91 1751.59 2353.44C1701.14 2290.09 1620.19 2253.72 1540.42 2241.99C1352.7 2220.87 1168.51 2285.4 996.05 2354.62C815.377 2430.88 594.815 2536.46 515.037 2727.7C491.573 2771.1 545.54 2784.01 578.39 2791.05C634.703 2802.78 691.017 2806.3 748.504 2810.99C862.305 2819.21 977.279 2827.42 1091.08 2841.5C1350.36 2874.35 1629.58 2943.57 1851.31 3085.52L1854.83 3087.87C1854.83 3087.87 1857.18 3089.04 1854.83 3087.87C1847.8 3082 1833.72 3082 1827.85 3086.7Z" fill="#2E2E2E"/>
<path d="M2990.49 2823.9C2971.72 2714.8 2398.02 2313.56 2341.71 2324.12C2317.07 2356.97 2041.37 2333.51 1967.46 2341.72C1955.73 2342.89 1948.69 2354.62 1952.21 2365.18C2007.35 2514.18 2077.74 2961.17 2107.07 3113.68C2246.68 2976.42 2403.89 2915.41 2547.02 2887.26C2796.91 2837.98 3002.22 2891.95 2990.49 2823.9Z" fill="#CDCDCD"/>
<path d="M2977.59 2826.25C2930.66 2703.06 2468.42 2390.99 2347.58 2353.45L2366.35 2341.71C2348.75 2359.31 2332.33 2356.97 2312.38 2358.14C2288.92 2356.97 2259.59 2355.79 2236.13 2353.45C2178.64 2348.75 2110.59 2347.58 2051.93 2347.58C2024.95 2347.58 1996.79 2347.58 1970.98 2349.93C1965.12 2349.93 1962.77 2353.45 1961.6 2358.14C1981.54 2414.45 1996.79 2475.46 2010.87 2532.95C2050.76 2694.85 2084.78 2872 2121.15 3036.25L2137.58 3107.82L2087.13 3091.39C2273.67 2917.76 2518.87 2850.88 2768.76 2848.54C2809.82 2847.36 2849.71 2847.36 2889.6 2847.36C2908.37 2846.19 2982.28 2849.71 2977.59 2826.25ZM2994.02 2823.9C3001.05 2869.66 2917.76 2863.79 2889.6 2867.31C2849.71 2868.48 2808.65 2869.66 2768.76 2870.83C2532.95 2876.69 2287.75 2954.13 2128.19 3134.8C2111.77 3152.4 2080.09 3143.01 2077.74 3118.37C2040.2 2875.52 2005.01 2592.78 1938.13 2358.14C1938.13 2342.89 1952.21 2328.81 1967.46 2328.81H1976.85C2002.66 2327.64 2026.12 2328.81 2050.76 2329.98C2094.17 2332.33 2154 2334.67 2197.41 2334.67C2239.65 2334.67 2283.05 2334.67 2322.94 2322.94C2327.64 2321.77 2333.5 2318.25 2333.5 2317.08C2333.5 2315.9 2334.68 2313.56 2335.85 2313.56C2349.93 2311.21 2359.31 2315.9 2369.87 2320.6C2486.02 2373.39 2970.55 2717.14 2994.02 2823.9Z" fill="#2E2E2E"/>
<path d="M1680.02 3327.2C1731.21 3327.2 1772.71 3285.7 1772.71 3234.52C1772.71 3183.33 1731.21 3141.83 1680.02 3141.83C1628.84 3141.83 1587.34 3183.33 1587.34 3234.52C1587.34 3285.7 1628.84 3327.2 1680.02 3327.2Z" fill="#CDCDCD"/>
<path d="M1120.4 3615.81C1240.92 3615.81 1338.62 3518.11 1338.62 3397.59C1338.62 3277.08 1240.92 3179.38 1120.4 3179.38C999.885 3179.38 902.186 3277.08 902.186 3397.59C902.186 3518.11 999.885 3615.81 1120.4 3615.81Z" fill="#CDCDCD"/>
<path d="M2674.9 3615.81C2778.57 3615.81 2862.61 3518.11 2862.61 3397.6C2862.61 3277.08 2778.57 3179.38 2674.9 3179.38C2571.23 3179.38 2487.19 3277.08 2487.19 3397.6C2487.19 3518.11 2571.23 3615.81 2674.9 3615.81Z" fill="#CDCDCD"/>
<path d="M2237.3 3315.47C2285.9 3315.47 2325.29 3276.08 2325.29 3227.48C2325.29 3178.89 2285.9 3139.49 2237.3 3139.49C2188.7 3139.49 2149.31 3178.89 2149.31 3227.48C2149.31 3276.08 2188.7 3315.47 2237.3 3315.47Z" fill="#CDCDCD"/>
<path d="M1837.24 2984.63C1832.54 2981.11 1827.85 2977.59 1823.16 2974.07" stroke="#2E2E2E" stroke-width="3" stroke-linecap="round" stroke-linejoin="round"/>
<path d="M1729.3 2910.72C1635.44 2859.1 1531.03 2826.25 1407.84 2792.23C1123.93 2712.45 930.347 2738.26 685.148 2664.35C672.243 2660.83 656.991 2656.14 642.913 2650.27" stroke="#2E2E2E" stroke-width="3" stroke-linecap="round" stroke-linejoin="round" stroke-dasharray="2.9 2.9"/>
<path d="M598.336 2616.24C595.989 2611.55 594.816 2605.68 594.816 2599.82" stroke="#2E2E2E" stroke-width="3" stroke-linecap="round" stroke-linejoin="round"/>
<path d="M2088.3 2999.88C2088.3 2999.88 2092.99 2995.19 2101.2 2988.15" stroke="#2E2E2E" stroke-width="3" stroke-linecap="round" stroke-linejoin="round"/>
<path d="M2197.41 2921.27C2257.24 2886.08 2341.71 2843.84 2453.16 2808.65C2629.14 2753.51 2781.66 2757.03 2870.82 2757.03" stroke="#2E2E2E" stroke-width="3" stroke-linecap="round" stroke-linejoin="round" stroke-dasharray="3 3"/>
<path d="M2929.48 2757.03C2936.52 2755.85 2942.39 2754.68 2947.08 2753.51" stroke="#2E2E2E" stroke-width="3" stroke-linecap="round" stroke-linejoin="round"/>
<path d="M1730.46 3181.73C1816.11 3196.98 1980.36 3214.58 2188.01 3178.21C2220.86 3172.34 2251.37 3195.8 2253.71 3228.65V3234.52C2256.06 3262.68 2237.29 3288.49 2210.3 3294.35C2127.01 3314.3 1940.47 3342.45 1707 3292.01C1681.19 3286.14 1662.42 3262.68 1662.42 3236.87C1663.59 3202.84 1695.27 3175.86 1730.46 3181.73Z" fill="#CDCDCD"/>
<path d="M1731.64 3175.86C1812.59 3188.77 1895.89 3187.59 1976.84 3185.25C2031.98 3185.25 2085.95 3182.9 2141.09 3177.03C2169.25 3175.86 2199.75 3162.96 2226.73 3178.21C2268.97 3199.32 2273.66 3267.37 2233.77 3293.18C2223.21 3301.39 2205.62 3304.91 2192.71 3307.26C2033.15 3348.32 1865.39 3340.11 1707 3300.22C1629.57 3279.1 1651.86 3165.3 1731.64 3175.86ZM1729.3 3187.59C1669.46 3177.03 1644.82 3260.33 1701.14 3283.8C1753.93 3296.7 1809.07 3301.39 1863.04 3304.91C1917.01 3308.43 1972.15 3309.61 2026.12 3307.26C2080.08 3304.91 2135.22 3301.39 2189.19 3292.01C2202.1 3289.66 2215 3288.49 2226.73 3281.45C2259.58 3261.5 2256.06 3205.19 2220.87 3188.77C2209.14 3182.9 2197.4 3182.9 2184.5 3186.42C2143.44 3194.63 2102.37 3201.67 2061.31 3206.36C1951.03 3221.62 1838.4 3211.06 1729.3 3187.59Z" fill="#2E2E2E"/>
<path d="M2146.95 2881.39C2122.32 3002.23 1962.76 3074.96 1694.1 2965.86C1414.88 2853.23 1294.04 2584.57 1263.53 2504.79C1428.95 2195.06 1313.98 1980.37 1313.98 1980.37C1695.27 1947.52 2028.46 2393.33 2028.46 2393.33L2080.08 2613.9C2084.77 2632.67 2094.16 2649.09 2108.24 2660.82C2132.88 2704.23 2162.21 2803.96 2146.95 2881.39Z" fill="#CDCDCD"/>
<path d="M1257.67 2508.31C1279.96 2474.29 1294.04 2434.4 1303.43 2395.68C1321.02 2314.73 1326.89 2232.61 1328.06 2150.48V2119.98C1324.54 2089.47 1313.99 2057.8 1302.25 2029.64C1287 1992.1 1342.14 1968.63 1359.74 2006.18C1362.09 2010.87 1362.09 2019.08 1362.09 2023.78C1365.61 2183.33 1372.65 2388.64 1271.75 2521.21C1264.71 2528.25 1250.63 2517.69 1257.67 2508.31Z" fill="#2E2E2E"/>
<path d="M2041.37 2390.99C2058.97 2401.55 2064.83 2415.63 2067.18 2429.7C2074.22 2457.86 2071.87 2488.36 2078.91 2517.69C2084.78 2545.85 2102.37 2572.84 2107.07 2602.17C2112.93 2632.67 2130.53 2697.19 2137.57 2728.87C2139.92 2735.91 2135.22 2744.12 2127.01 2745.3C2122.32 2746.47 2118.8 2745.3 2115.28 2742.95C2100.03 2730.04 2092.99 2717.14 2083.6 2700.71C2068.35 2672.56 2057.79 2646.75 2048.41 2615.07C2040.19 2586.91 2043.71 2556.41 2036.67 2527.08C2030.81 2498.92 2014.38 2471.94 2008.52 2442.61C2005 2428.53 2003.82 2413.28 2014.38 2395.68C2021.42 2388.64 2033.15 2386.3 2041.37 2390.99Z" fill="#2E2E2E"/>
<path d="M2125.84 2700.71C1901.76 2688.98 1718.74 2618.59 1540.41 2300.65C1690.58 2433.22 1867.74 2483.67 2054.28 2507.13L2078.91 2615.07C2083.61 2633.84 2111.76 2688.98 2125.84 2700.71Z" fill="#2E2E2E"/>
<path d="M2116.46 2657.31C2156.35 2732.39 2179.81 2826.25 2155.18 2909.54C2136.41 2968.2 2082.44 3011.61 2023.78 3028.04C1887.69 3064.41 1730.48 3006.92 1609.64 2942.39C1460.64 2859.1 1350.36 2719.48 1279.97 2566.97C1275.27 2555.24 1291.7 2545.85 1298.74 2557.58C1323.38 2606.86 1351.53 2654.96 1383.21 2698.37C1414.89 2742.95 1451.25 2784.01 1492.32 2820.38C1611.98 2928.31 1773.89 2995.19 1935.79 2995.19C2102.38 2990.49 2165.74 2902.5 2127.02 2740.6C2121.15 2714.79 2111.77 2687.81 2098.86 2665.52C2091.82 2656.13 2109.42 2645.57 2116.46 2657.31Z" fill="#2E2E2E"/>
<path d="M2570.49 1248.29C2591.61 1346.84 2602.17 1426.62 2544.68 1689.41C2488.36 1951.04 2597.47 2215.01 2320.6 2455.51C2134.06 2617.42 1807.91 2647.92 1547.46 2470.77C1459.47 2410.93 1436 2131.71 1366.78 2024.95C1337.45 1980.37 1319.85 2051.93 1252.98 1978.02C1160.3 1877.13 1048.85 1674.16 1103.99 1315.16C1193.15 733.253 1654.22 665.207 1995.62 729.733C2338.19 794.259 2514.18 989.011 2570.49 1248.29Z" fill="#CDCDCD"/>
<path d="M1310.47 2081.26C1283.48 2036.68 1249.46 1997.96 1217.78 1956.9C1170.86 1893.55 1135.66 1820.81 1112.19 1745.73C1011.3 1424.27 1065.27 1005.44 1363.26 804.818C1638.96 618.278 2165.73 674.592 2407.41 899.847C2528.25 1008.95 2595.12 1167.34 2609.2 1326.89C2616.24 1433.65 2590.43 1536.9 2568.14 1640.14C2542.33 1741.03 2536.46 1841.93 2536.46 1946.34C2535.29 2050.76 2530.6 2159.87 2490.71 2258.42C2429.7 2408.59 2301.82 2530.6 2148.13 2582.22C1946.34 2652.61 1708.18 2612.72 1542.76 2477.8C1535.72 2471.94 1542.76 2462.55 1550.97 2466.07C1768.02 2589.26 2053.1 2610.38 2264.28 2468.42C2389.81 2383.95 2476.63 2250.2 2496.57 2100.03C2513 1997.96 2508.31 1894.72 2517.69 1791.48C2521.21 1745.73 2534.12 1682.37 2543.5 1636.62C2557.58 1560.36 2566.97 1484.1 2565.79 1407.84C2564.62 1332.76 2548.19 1258.85 2525.9 1187.28C2448.47 932.697 2226.74 782.527 1970.98 741.465C1588.52 674.592 1254.15 816.55 1154.43 1214.27C1111.02 1409.02 1077 1623.71 1159.12 1812.6C1188.45 1884.16 1236.55 1945.17 1291.69 1997.96L1345.66 2055.45C1369.13 2078.92 1329.24 2109.42 1310.47 2081.26Z" fill="#2E2E2E"/>
<path d="M1448.9 1708.18C1448.9 1708.18 1412.53 1532.2 1241.24 1553.32C1093.42 1572.09 1041.8 1926.4 1377.33 2024.95" fill="#CDCDCD"/>
<path d="M1362.08 1871.26C1335.1 1856.01 1316.33 1830.2 1315.16 1798.52C1316.33 1775.05 1319.85 1748.07 1313.98 1724.61C1310.46 1702.32 1287 1696.45 1269.4 1697.62C1250.63 1701.14 1238.9 1724.61 1235.38 1743.38C1235.38 1744.55 1234.2 1748.07 1234.2 1749.24C1233.03 1755.11 1223.65 1755.11 1221.3 1749.24C1206.05 1703.49 1240.07 1653.04 1289.35 1658.91C1358.56 1663.6 1367.95 1736.34 1355.04 1791.48C1348.01 1814.94 1357.39 1836.06 1370.3 1856.01L1372.64 1859.53C1378.51 1866.56 1369.12 1875.95 1362.08 1871.26Z" fill="#2E2E2E"/>
<path d="M2300.65 1583.82C2318.24 1667.12 2351.09 1744.55 2392.15 1817.29C2428.52 1906.45 2334.67 1990.92 2251.37 1987.41C2241.98 1987.41 2240.81 1974.5 2249.02 1972.15C2301.82 1955.73 2349.92 1920.53 2358.13 1866.57C2361.65 1850.14 2356.96 1836.06 2348.75 1821.98C2310.03 1749.25 2286.57 1665.95 2292.43 1583.82C2292.43 1577.96 2300.65 1577.96 2300.65 1583.82Z" fill="#2E2E2E"/>
<path d="M1443.04 1709.36C1416.05 1640.14 1357.39 1574.44 1278.79 1575.61C1271.75 1574.44 1260.02 1576.79 1252.98 1576.79C1233.03 1577.96 1216.61 1585 1201.36 1599.08C1126.27 1674.16 1139.18 1806.73 1200.19 1890.03C1221.3 1919.36 1248.29 1945.17 1278.79 1966.29C1309.29 1987.41 1343.32 2003.83 1379.68 2017.91C1387.9 2020.26 1384.38 2033.16 1376.17 2031.99C1297.56 2015.56 1222.48 1976.85 1170.85 1912.32C1091.08 1816.12 1074.65 1655.39 1169.68 1561.53C1190.8 1542.76 1220.13 1528.68 1249.46 1528.68C1258.85 1528.68 1272.92 1526.34 1282.31 1528.68C1331.58 1531.03 1378.51 1555.67 1409.02 1594.38C1436 1627.23 1451.25 1667.12 1455.94 1707.01C1455.94 1714.05 1445.38 1716.4 1443.04 1709.36Z" fill="#2E2E2E"/>
<path d="M2211.49 2104.73C2136.4 2176.29 1994.44 2118.8 1956.9 2031.99C1952.21 2021.43 1963.94 2012.04 1973.33 2016.74C1993.27 2027.29 2010.87 2037.85 2029.64 2046.07C2083.61 2070.7 2139.92 2090.65 2199.76 2084.78C2211.49 2082.43 2219.7 2096.51 2211.49 2104.73Z" fill="#2E2E2E"/>
<path d="M1863.05 1703.49C1834.89 1702.32 1813.77 1678.85 1816.12 1650.7L1817.29 1617.85C1818.47 1589.69 1841.93 1568.57 1870.09 1570.92C1898.24 1572.09 1919.36 1595.56 1917.02 1623.71L1915.84 1656.56C1914.67 1683.55 1891.21 1704.66 1863.05 1703.49Z" fill="#2E2E2E"/>
<path d="M2356.96 1721.09C2331.15 1719.92 2311.21 1697.63 2312.38 1671.82L2313.55 1641.31C2314.73 1615.5 2337.02 1595.56 2362.83 1596.73C2388.64 1597.9 2408.58 1620.19 2407.41 1646L2406.24 1676.51C2405.06 1702.32 2382.77 1722.26 2356.96 1721.09Z" fill="#2E2E2E"/>
<path d="M1968.64 1640.14C1929.92 1614.33 1887.69 1596.73 1840.76 1606.11C1825.51 1608.46 1810.25 1613.15 1800.87 1623.71C1797.35 1628.41 1789.14 1627.23 1789.14 1620.19C1790.31 1596.73 1810.25 1581.48 1829.03 1572.09C1865.39 1553.32 1915.84 1556.84 1948.69 1581.48C1960.42 1588.52 2000.31 1631.93 1979.2 1641.31C1974.5 1643.66 1972.16 1642.48 1968.64 1640.14Z" fill="#2E2E2E"/>
<path d="M2304.17 1646C2304.17 1596.73 2365.18 1579.13 2402.72 1596.73C2423.84 1606.12 2439.09 1624.89 2444.96 1647.18C2447.3 1654.22 2436.74 1660.08 2432.05 1654.22C2412.11 1630.75 2378.08 1619.02 2351.1 1633.1C2342.89 1637.79 2341.71 1641.31 2339.37 1646C2339.37 1669.47 2305.35 1668.29 2304.17 1646Z" fill="#2E2E2E"/>
<path d="M2024.95 1446.56C2049.59 1454.77 2074.22 1432.48 2069.53 1405.5C2067.19 1391.42 2061.32 1377.34 2049.59 1366.78C2014.39 1335.11 1868.91 1306.95 1780.92 1348.01C1703.49 1385.55 1912.32 1409.02 2024.95 1446.56Z" fill="#2E2E2E"/>
<path d="M2375.74 1465.33C2355.8 1472.37 2334.68 1451.25 2338.2 1426.62C2339.37 1413.71 2344.07 1400.81 2353.45 1391.42C2381.61 1363.26 2477.81 1340.97 2538.82 1384.38C2591.61 1420.75 2467.25 1431.31 2375.74 1465.33Z" fill="#2E2E2E"/>
<path d="M2623.59 865.742C2644.71 816.467 2644.71 762.5 2609.52 715.572C2507.45 580.654 2191.86 682.722 2015.87 626.409C1751.9 540.765 1424.58 530.206 1232.18 846.971C1184.07 926.748 1160.61 949.039 1092.56 1012.39C1022.17 1078.09 967.032 1198.93 962.339 1364.35C951.78 1696.37 1212.23 1984.98 1212.23 1984.98C1225.14 2002.58 1236.87 2017.83 1247.43 2030.73C1341.28 2143.36 1370.61 2360.4 1342.46 2017.83C1050.33 1905.2 1103.12 1577.88 1245.08 1560.28C1395.25 1541.51 1442.18 1675.25 1450.39 1708.1C1551.29 1643.58 1514.92 1506.31 1503.19 1378.43C1581.79 1343.24 1648.66 1258.76 1683.86 1182.51C1722.57 1236.47 1769.5 1278.71 1825.82 1283.4C1885.65 1289.27 1920.85 1238.82 1932.58 1167.25C2010.01 1269.32 2147.27 1396.03 2363.14 1420.67C2466.38 1432.4 2552.03 1388.99 2609.52 1317.42C2624.77 1319.77 2638.85 1320.94 2652.92 1319.77C2804.27 1304.52 2973.21 998.314 2623.59 865.742Z" fill="#2E2E2E"/>
<path d="M2049.59 1847.79C2049.59 1847.79 1939.31 1917.01 1814.95 1915.84C1690.59 1914.67 1675.34 1817.29 1674.16 1764.5C1674.16 1764.5 1690.59 1840.75 1765.67 1868.91C1839.58 1897.07 2049.59 1847.79 2049.59 1847.79Z" fill="#2E2E2E"/>
<path d="M2403.89 1834.89C2403.89 1834.89 2430.87 1867.74 2467.24 1891.2C2491.88 1907.63 2524.73 1890.03 2524.73 1860.7C2524.73 1860.7 2456.68 1864.22 2403.89 1834.89Z" fill="#2E2E2E"/>
<path d="M2090.64 1534.55C2027.29 1528.68 1867.73 1515.78 1806.73 1509.91L1759.8 1506.39C1721.08 1504.05 1690.58 1536.9 1683.54 1574.44C1681.19 1586.17 1681.19 1606.11 1681.19 1617.85V1665.95C1681.19 1695.28 1680.02 1725.78 1690.58 1753.94C1709.35 1819.64 1769.18 1872.43 1839.58 1864.22C1846.62 1863.05 1890.02 1858.35 1898.24 1857.18L1993.27 1846.62C2023.77 1844.27 2051.93 1836.06 2078.91 1819.64C2116.45 1797.35 2152.82 1763.32 2150.47 1715.22L2152.82 1668.29C2155.17 1609.63 2171.59 1540.42 2090.64 1534.55ZM2094.16 1495.83C2149.3 1500.53 2186.84 1558.01 2183.32 1610.81C2183.32 1617.85 2180.98 1662.43 2179.8 1670.64C2179.8 1680.03 2177.46 1722.26 2176.29 1730.47C2170.42 1810.25 2081.26 1866.57 2008.52 1877.12C1970.97 1881.82 1892.37 1892.38 1854.83 1897.07C1845.44 1898.24 1832.54 1899.42 1823.15 1900.59C1818.46 1900.59 1807.9 1899.42 1803.21 1899.42C1703.48 1886.51 1640.13 1784.44 1642.48 1689.41C1642.48 1674.16 1642.48 1634.27 1642.48 1617.85C1642.48 1609.63 1642.48 1588.52 1643.65 1580.3C1647.17 1539.24 1669.46 1499.35 1707 1477.06C1723.43 1467.68 1743.37 1462.98 1763.32 1464.16L1811.42 1468.85C1870.08 1475.89 2031.98 1491.14 2094.16 1495.83Z" fill="#2E2E2E"/>
<path d="M2366.35 1514.6C2392.16 1511.09 2518.86 1497.01 2542.33 1494.66C2548.19 1494.66 2563.44 1492.31 2568.14 1492.31C2618.59 1485.27 2642.05 1540.42 2646.74 1581.48C2649.09 1617.85 2646.74 1653.04 2647.92 1688.24C2647.92 1712.88 2645.57 1737.51 2639.7 1760.98C2624.45 1824.33 2579.87 1891.2 2505.96 1870.09C2488.36 1866.57 2453.16 1861.87 2436.74 1858.35L2419.14 1854.83C2385.12 1848.97 2356.96 1825.5 2338.19 1799.69C2302.99 1758.63 2310.03 1703.49 2306.51 1654.22C2301.82 1604.94 2302.99 1528.68 2366.35 1514.6ZM2371.04 1548.63C2334.67 1565.05 2344.06 1620.19 2344.06 1653.04L2346.4 1723.43C2347.58 1768.02 2382.77 1812.6 2425.01 1824.33C2435.57 1826.68 2464.9 1832.54 2476.63 1834.89L2510.65 1841.93C2595.12 1868.91 2627.97 1751.59 2626.8 1687.07C2623.28 1633.1 2639.7 1568.57 2600.99 1525.16C2591.6 1515.78 2582.22 1513.43 2571.66 1515.78C2565.79 1516.95 2550.54 1519.3 2545.85 1520.47C2522.38 1525.16 2395.68 1545.11 2371.04 1548.63Z" fill="#2E2E2E"/>
<path d="M1661.25 1623.71C1651.87 1644.83 1643.65 1642.48 1627.23 1642.48L1593.21 1641.31C1549.8 1638.96 1501.7 1635.44 1458.29 1629.58C1434.82 1626.06 1410.19 1622.54 1386.72 1616.67C1377.34 1614.33 1371.47 1604.94 1373.82 1595.56C1376.16 1587.34 1383.2 1581.48 1391.42 1582.65L1459.46 1586.17L1527.51 1588.52C1549.8 1589.69 1607.28 1590.86 1629.58 1592.04C1641.31 1592.04 1651.87 1593.21 1663.6 1589.69C1668.29 1588.52 1672.98 1590.86 1674.16 1595.56C1675.33 1597.9 1674.16 1599.08 1674.16 1601.42L1661.25 1623.71Z" fill="#2E2E2E"/>
<path d="M2161.04 1599.08C2203.27 1575.61 2314.73 1542.76 2335.84 1606.11C2345.23 1622.54 2320.59 1637.79 2310.03 1621.37C2310.03 1623.71 2304.17 1621.37 2301.82 1621.37C2257.24 1617.85 2211.48 1624.89 2166.9 1628.41C2148.13 1630.75 2144.61 1606.11 2161.04 1599.08Z" fill="#2E2E2E"/>
<path d="M3381.17 989.01C4093.3 2360.48 2841.5 3907.94 1349.18 3530.17C679.284 3363.57 140.784 2782.84 29.3301 2101.21C-97.3758 1423.09 208.83 694.536 781.353 310.899C1566.23 -228.775 2653.78 -49.2746 3215.75 722.693C3219.27 726.212 3218.09 732.078 3213.4 735.598C3209.88 739.118 3204.02 737.944 3200.5 733.252C3123.07 633.529 3035.08 543.193 2938.87 462.242C2780.49 327.324 2595.12 221.735 2399.2 150.17C1401.98 -211.176 307.379 389.503 89.1634 1432.48C-157.209 2600.99 836.493 3676.82 2021.43 3516.09C2935.35 3401.11 3614.64 2557.58 3539.55 1640.14C3523.13 1418.4 3464.47 1199.01 3367.09 997.222C3364.75 993.703 3367.09 989.01 3370.61 986.663C3374.13 984.317 3378.82 985.49 3381.17 989.01Z" fill="#2E2E2E"/>
</g>
</svg>
